<svg xmlns="http://www.w3.org/2000/svg" viewBox="0 0 288.42 164.05">
  <defs>
    <style>
      .cls-1, .cls-2 {
        fill: #ff8000;
      }

      .cls-1 {
        fill-rule: evenodd;
      }
    </style>
  </defs>
  <title>Asset 1</title>
  <g id="Layer_2" data-name="Layer 2">
    <g id="Layer_1-2" data-name="Layer 1">
      <g>
        <g>
          <polygon class="cls-1" points="39.72 22.53 59.99 0 59.99 164.05 39.72 164.05 39.72 22.53"/>
          <polygon class="cls-1" points="87.32 52.66 107.5 30.13 107.5 164.05 87.32 164.05 87.32 52.66"/>
          <polygon class="cls-1" points="76.1 21.63 72.48 17.55 72.48 164.05 76.1 164.05 76.1 21.63"/>
          <polygon class="cls-1" points="83.7 30.04 80.08 25.97 80.08 164.05 83.7 164.05 83.7 30.04"/>
          <polygon class="cls-1" points="122.7 160.34 0 160.34 0 164.05 122.7 164.05 122.7 160.34"/>
          <polygon class="cls-1" points="67.87 12.49 64.25 8.41 64.25 164.05 67.87 164.05 67.87 12.49"/>
          <polygon class="cls-1" points="122.97 52.21 119.26 48.14 119.08 164.05 122.7 164.05 122.97 52.21"/>
          <polygon class="cls-1" points="114.74 43.07 111.03 39 110.85 164.05 114.47 164.05 114.74 43.07"/>
          <polygon class="cls-1" points="0 91.12 20.27 68.68 20.27 164.05 0 164.05 0 91.12"/>
          <polygon class="cls-1" points="36.01 87.32 32.4 83.25 32.12 164.05 35.74 164.05 36.01 87.32"/>
          <polygon class="cls-1" points="27.78 78.18 24.16 74.11 23.89 164.05 27.51 164.05 27.78 78.18"/>
        </g>
        <g>
          <g>
            <path class="cls-2" d="M138.8,81.76v42.69h-6.57V81.76Zm12.38,17.59a6.55,6.55,0,0,1-1.27,1.53A11.63,11.63,0,0,1,148.4,102a6.46,6.46,0,0,1,2.84,3,11.8,11.8,0,0,1,1.06,5.39v2.37q0,11.72-11.6,11.72H140v-6.57h1.12a6.42,6.42,0,0,0,2.73-.48,3.29,3.29,0,0,0,1.51-1.36,5.43,5.43,0,0,0,.62-2.16c.08-.85.12-1.78.12-2.81a18.08,18.08,0,0,0-.18-2.75,4.41,4.41,0,0,0-.71-1.9,3.3,3.3,0,0,0-1.48-1.12,6.83,6.83,0,0,0-2.55-.39H140V99.05h1.24A4.84,4.84,0,0,0,145,97.81c.73-.83,1.1-2.29,1.1-4.39a6,6,0,0,0-1.19-4.17A5.12,5.12,0,0,0,141,88h-1V81.76h1.3q5.57,0,8.47,3.38a11,11,0,0,1,2.54,7.57v1.54A10,10,0,0,1,151.18,99.35Z"/>
            <path class="cls-2" d="M165.27,124.81a10.17,10.17,0,0,1-3.49-.86,10.1,10.1,0,0,1-5.92-9.21v-33h6.57v32.39q0,3.61,2.84,4.08Zm10.66-43v33a9.76,9.76,0,0,1-3,7.16,10.34,10.34,0,0,1-6.52,2.91v-6.58q2.91-.47,2.91-4.08V81.76Z"/>
            <path class="cls-2" d="M185.52,81.76v42.69H179V81.76Z"/>
            <path class="cls-2" d="M195.58,124.45H189V81.76h6.57Zm11.79-6.57v6.57H196.71v-6.57Z"/>
            <path class="cls-2" d="M216,124.45h-6.57V81.76H216Zm10.66-39.67c1.89,2,2.84,4.7,2.84,8.17v19.72q0,5.86-3,8.88t-8.41,2.9h-.88v-6.22h1.3a4.36,4.36,0,0,0,3.4-1.15,5.67,5.67,0,0,0,1-3.82V93a6,6,0,0,0-.95-3.73A4.36,4.36,0,0,0,218.44,88h-1.3V81.76h1.42a13.91,13.91,0,0,1,4.62.77A9.57,9.57,0,0,1,226.61,84.78Z"/>
            <path class="cls-2" d="M238.81,81.76v42.69h-6.58V81.76Z"/>
            <path class="cls-2" d="M256.15,120l-7.28-20v24.51H242.3V81.76h6.22l7.63,21.2Zm7.76-38.19v42.69h-6.16l-.06-.18-.35-1V81.76Z"/>
            <path class="cls-2" d="M268.47,87.59a9.94,9.94,0,0,1,2.21-3.25,9.6,9.6,0,0,1,3.13-2,11.74,11.74,0,0,1,3.66-.83V88a3.53,3.53,0,0,0-3.26,4v22.27a3.71,3.71,0,0,0,1,2.87,4.1,4.1,0,0,0,2.26,1.09v6.58a11.74,11.74,0,0,1-3.66-.83,9.6,9.6,0,0,1-3.13-2,9.94,9.94,0,0,1-2.21-3.25,11.15,11.15,0,0,1-.83-4.41V92A11.15,11.15,0,0,1,268.47,87.59Zm13.74-5.3a9.83,9.83,0,0,1,3.16,2,9.67,9.67,0,0,1,2.22,3.25,11,11,0,0,1,.83,4.41v.83h-6.57V92a3.54,3.54,0,0,0-3.26-4V81.46A11.89,11.89,0,0,1,282.21,82.29Zm-3.62,17.53h9.83v14.45a11,11,0,0,1-.83,4.41,9.67,9.67,0,0,1-2.22,3.25,9.83,9.83,0,0,1-3.16,2,11.89,11.89,0,0,1-3.62.83v-6.58a4.17,4.17,0,0,0,2.25-1.09,3.71,3.71,0,0,0,1-2.87V106h-3.26Z"/>
          </g>
          <g>
            <path class="cls-2" d="M137.82,160.74a11.35,11.35,0,0,1-1.8-.33,4.81,4.81,0,0,1-1.88-1,5.86,5.86,0,0,1-2-4.87v-14a6.59,6.59,0,0,1,.42-2.36,5.61,5.61,0,0,1,1.26-1.94,5.82,5.82,0,0,1,4-1.71v4a1.5,1.5,0,0,0-1.32.75,4,4,0,0,0-.39,2v13c0,1.48.57,2.29,1.71,2.44Zm4.73-24.44a6,6,0,0,1,1.27,2,6.73,6.73,0,0,1,.44,2.47v.57h-4V141a3.08,3.08,0,0,0-.44-1.6,1.83,1.83,0,0,0-1.31-.87v-4A5.66,5.66,0,0,1,142.55,136.3Zm-2.26,17.64h4v.75a5.73,5.73,0,0,1-.46,2.25,6.34,6.34,0,0,1-1.29,2,5.77,5.77,0,0,1-1.81,1.29,6.08,6.08,0,0,1-2.16.54v-4a2.34,2.34,0,0,0,.55-.18,2.27,2.27,0,0,0,.58-.41,2.21,2.21,0,0,0,.44-.7,2.93,2.93,0,0,0,.18-1.11Z"/>
            <path class="cls-2" d="M152.14,160.74a7.31,7.31,0,0,1-2.22-.5A5.79,5.79,0,0,1,148,159a6.16,6.16,0,0,1-1.33-2,6.54,6.54,0,0,1-.5-2.66V140.91a6.54,6.54,0,0,1,.5-2.66,6.16,6.16,0,0,1,1.33-2,5.61,5.61,0,0,1,1.89-1.23,6.76,6.76,0,0,1,2.22-.5v4a2.12,2.12,0,0,0-2,2.39v13.46a2.24,2.24,0,0,0,.6,1.73,2.57,2.57,0,0,0,1.37.67ZM155,135.05a5.79,5.79,0,0,1,1.91,1.23,5.88,5.88,0,0,1,1.34,2,6.54,6.54,0,0,1,.51,2.66v13.46a6.54,6.54,0,0,1-.51,2.66,5.88,5.88,0,0,1-1.34,2,6,6,0,0,1-1.91,1.24,7.33,7.33,0,0,1-2.18.5v-4a2.61,2.61,0,0,0,1.36-.67,2.24,2.24,0,0,0,.6-1.73V140.91a2.12,2.12,0,0,0-2-2.39v-4A6.77,6.77,0,0,1,155,135.05Z"/>
            <path class="cls-2" d="M169.24,157.8l-4.4-12.09v14.81h-4V134.73h3.75l4.62,12.8Zm4.69-23.07v25.79H170.2l0-.11-.22-.6V134.73Z"/>
            <path class="cls-2" d="M182,160.7a7.31,7.31,0,0,1-3.06-.9,5.07,5.07,0,0,1-2.2-2.48,5.35,5.35,0,0,1-.43-1.67c-.07-.66-.12-1.24-.14-1.75h3.72c.14,1.85.85,2.84,2.11,3Zm2.22-14.2c.67.64,1.27,1.26,1.81,1.84a11.27,11.27,0,0,1,1.36,1.81,8.78,8.78,0,0,1,.86,2,8.58,8.58,0,0,1,.3,2.37,6.63,6.63,0,0,1-.45,2.48,6.23,6.23,0,0,1-1.21,1.95,5.51,5.51,0,0,1-1.85,1.29,6.14,6.14,0,0,1-2.32.5v-3.76a2.26,2.26,0,0,0,1.5-.75,2.37,2.37,0,0,0,.57-1.64,4,4,0,0,0-.25-1.45,5.48,5.48,0,0,0-.71-1.29,12.38,12.38,0,0,0-1.11-1.29l-1.4-1.41c-.71-.72-1.36-1.38-2-2a13.5,13.5,0,0,1-1.5-1.89,8.49,8.49,0,0,1-1-2,6.92,6.92,0,0,1-.36-2.29,6.32,6.32,0,0,1,.43-2.37,6.42,6.42,0,0,1,1.16-1.94,5.79,5.79,0,0,1,1.73-1.34,6.33,6.33,0,0,1,2.15-.61v3.58a1.87,1.87,0,0,0-1.2.77,2.61,2.61,0,0,0-.44,1.56,4.17,4.17,0,0,0,.3,1.59,6.66,6.66,0,0,0,.82,1.43,12.77,12.77,0,0,0,1.22,1.41C183.17,145.47,183.68,146,184.23,146.5Zm-1.5-11.85a5.36,5.36,0,0,1,3.75,1.58,6.67,6.67,0,0,1,1.79,4.18,2.28,2.28,0,0,1,0,.45,3.87,3.87,0,0,0,0,.48h-3.79a7.4,7.4,0,0,0-.14-.94,4.25,4.25,0,0,0-.32-1,3.44,3.44,0,0,0-.54-.79,1.43,1.43,0,0,0-.82-.41Z"/>
            <path class="cls-2" d="M202.41,134.73v3.75H190v-3.75Zm-4.23,4.47v21.32h-4V139.2Z"/>
            <path class="cls-2" d="M208,160.52h-4V134.73h4Zm8.91,0h-4.19l-4-10.84v-3.4h.86a4.18,4.18,0,0,0,1.64-.25,1.68,1.68,0,0,0,.84-.73,2.93,2.93,0,0,0,.33-1.2c0-.48.05-1,.05-1.65s0-1.08,0-1.54a3.08,3.08,0,0,0-.32-1.25c-.33-.78-1.12-1.18-2.36-1.18h-1v-3.75h.93a7.52,7.52,0,0,1,2.77.44,5.83,5.83,0,0,1,2.06,1.42,6.66,6.66,0,0,1,.79,1,5.22,5.22,0,0,1,.53,1.19,7.56,7.56,0,0,1,.31,1.56,20.54,20.54,0,0,1,.09,2.06c0,.55,0,1,0,1.48a7.76,7.76,0,0,1-.16,1.24,6.94,6.94,0,0,1-.88,2.18,5.06,5.06,0,0,1-2.43,2.15Z"/>
            <path class="cls-2" d="M224.23,160.74a6.12,6.12,0,0,1-2.11-.52,6.11,6.11,0,0,1-3.58-5.57V134.73h4V154.3c0,1.45.58,2.27,1.72,2.47Zm6.44-26v19.92a5.86,5.86,0,0,1-1.79,4.33,6.22,6.22,0,0,1-3.93,1.76v-4c1.17-.2,1.75-1,1.75-2.47V134.73Z"/>
            <path class="cls-2" d="M238.18,160.74a11.35,11.35,0,0,1-1.8-.33,4.81,4.81,0,0,1-1.88-1,5.86,5.86,0,0,1-2-4.87v-14a6.59,6.59,0,0,1,.42-2.36,5.61,5.61,0,0,1,1.26-1.94,5.82,5.82,0,0,1,4-1.71v4a1.5,1.5,0,0,0-1.32.75,4,4,0,0,0-.39,2v13c0,1.48.57,2.29,1.71,2.44Zm4.73-24.44a6,6,0,0,1,1.27,2,6.73,6.73,0,0,1,.44,2.47v.57h-4V141a3.08,3.08,0,0,0-.44-1.6,1.83,1.83,0,0,0-1.31-.87v-4A5.66,5.66,0,0,1,242.91,136.3Zm-2.26,17.64h4v.75a5.73,5.73,0,0,1-.46,2.25,6.34,6.34,0,0,1-1.29,2,5.77,5.77,0,0,1-1.81,1.29,6.13,6.13,0,0,1-2.16.54v-4a2.34,2.34,0,0,0,.55-.18,2.27,2.27,0,0,0,.58-.41,2.21,2.21,0,0,0,.44-.7,2.93,2.93,0,0,0,.18-1.11Z"/>
            <path class="cls-2" d="M259,134.73v3.75H246.56v-3.75Zm-4.22,4.47v21.32h-4V139.2Z"/>
            <path class="cls-2" d="M266.56,160.74a7.31,7.31,0,0,1-2.22-.5,6,6,0,0,1-1.89-1.24,6.16,6.16,0,0,1-1.33-2,6.71,6.71,0,0,1-.5-2.66V140.91a6.71,6.71,0,0,1,.5-2.66,6.16,6.16,0,0,1,1.33-2,5.81,5.81,0,0,1,1.89-1.23,6.76,6.76,0,0,1,2.22-.5v4a2.12,2.12,0,0,0-2,2.39v13.46a2.24,2.24,0,0,0,.6,1.73,2.57,2.57,0,0,0,1.37.67Zm2.86-25.69a5.79,5.79,0,0,1,1.91,1.23,6.05,6.05,0,0,1,1.35,2,6.71,6.71,0,0,1,.5,2.66v13.46a6.71,6.71,0,0,1-.5,2.66,6.05,6.05,0,0,1-1.35,2,6,6,0,0,1-1.91,1.24,7.33,7.33,0,0,1-2.18.5v-4a2.61,2.61,0,0,0,1.36-.67,2.24,2.24,0,0,0,.61-1.73V140.91a2.14,2.14,0,0,0-2-2.39v-4A6.77,6.77,0,0,1,269.42,135.05Z"/>
            <path class="cls-2" d="M279.26,160.52h-4V134.73h4Zm8.91,0H284l-4-10.84v-3.4h.86a4.2,4.2,0,0,0,1.65-.25,1.68,1.68,0,0,0,.84-.73,2.78,2.78,0,0,0,.32-1.2q.06-.72.06-1.65c0-.57,0-1.08,0-1.54a3.08,3.08,0,0,0-.32-1.25c-.34-.78-1.12-1.18-2.36-1.18h-1v-3.75h.94a7.52,7.52,0,0,1,2.77.44,5.79,5.79,0,0,1,2.05,1.42,6.09,6.09,0,0,1,.79,1,4.83,4.83,0,0,1,.54,1.19,8.31,8.31,0,0,1,.3,1.56,20.54,20.54,0,0,1,.09,2.06c0,.55,0,1,0,1.48a9.1,9.1,0,0,1-.16,1.24,8.38,8.38,0,0,1-.34,1.11,9.76,9.76,0,0,1-.54,1.07,5.11,5.11,0,0,1-2.43,2.15Z"/>
          </g>
        </g>
      </g>
    </g>
  </g>
</svg>
